<svg xmlns="http://www.w3.org/2000/svg" x="0px" y="0px"
	 viewBox="0 0 500 500" style="enable-background:new 0 0 500 500;" xml:space="preserve">
	<g>
		<path d="M419.7,425H80.3C49.8,425,25,400.2,25,369.7V130.3C25,99.8,49.8,75,80.3,75h339.4c30.5,0,55.3,24.8,55.3,55.3v239.4
			C475,400.2,450.2,425,419.7,425z M80.3,95C60.8,95,45,110.8,45,130.3v239.4c0,19.5,15.8,35.3,35.3,35.3h339.4
			c19.5,0,35.3-15.8,35.3-35.3V130.3c0-19.5-15.8-35.3-35.3-35.3H80.3z"/>
	</g>
	<path d="M92.8,90.1H92h-4.2c-24.8,0-45,20.2-45,45v229.8c0,24.8,20.2,45,45,45H92h0.8h105.4V90.1H92.8z"/>
</svg>
