<svg xmlns="http://www.w3.org/2000/svg" x="0px" y="0px"
	 viewBox="0 0 500 500" style="enable-background:new 0 0 500 500;" xml:space="preserve">
	<g>
		<path d="M368,312.1H132l-0.6-9.4c-0.1-2.4-0.2-4.8-0.2-7.1c0-40.3,20.7-78.1,54.4-99.9V73.2h-9c-13,0-23.6-10.6-23.6-23.6
			S163.5,26,176.6,26h146.9c13,0,23.6,10.6,23.6,23.6s-10.6,23.6-23.6,23.6h-9v122.5c33.7,21.8,54.4,59.5,54.4,99.9
			c0,2.3-0.1,4.7-0.2,7.1L368,312.1z M151.2,292.1h197.5c-1.2-33.8-19.9-65.1-49.4-82.1l-5-2.9V53.2h29c2,0,3.6-1.6,3.6-3.6
			c0-2-1.6-3.6-3.6-3.6H176.6c-2,0-3.6,1.6-3.6,3.6c0,2,1.6,3.6,3.6,3.6h29v153.9l-5,2.9C171.1,227,152.4,258.3,151.2,292.1z"/>
	</g>
	<path d="M260.9,403.8V299.9h-21.8v108.8h0c0.1,36.1,4.9,65.3,10.9,65.3c6,0,10.9-29.7,10.9-66.4
		C260.9,406.4,260.9,405.1,260.9,403.8z"/>
</svg>
