<?xml version="1.0" encoding="utf-8"?>
<svg version="1.1" id="Layer_1" xmlns="http://www.w3.org/2000/svg" xmlns:xlink="http://www.w3.org/1999/xlink" x="0px" y="0px"
	 viewBox="0 0 500 500" style="enable-background:new 0 0 500 500;" xml:space="preserve">
<style type="text/css">
	.st0{fill:#FFFFFF;}
</style>
<circle cx="249.6" cy="251" r="235"/>
<path class="st0" d="M422.3,234.8H264.7V78.7c0-4.2-4.5-7.7-10-7.7h-10.3c-5.5,0-10,3.4-10,7.7v156.1H77.7c-4.2,0-7.7,4.5-7.7,10
	v10.3c0,5.6,3.4,10,7.7,10h156.7v158.2c0,4.2,4.5,7.7,10,7.7h10.3c5.5,0,9.9-3.4,10-7.7V265.1h157.6c4.2,0,7.7-4.5,7.7-10v-10.3
	C430,239.3,426.6,234.8,422.3,234.8z"/>
</svg>
