<svg version="1.1" xmlns="http://www.w3.org/2000/svg" xmlns:xlink="http://www.w3.org/1999/xlink" x="0px" y="0px"
	 viewBox="0 0 500 500" xml:space="preserve">
<path d="M481.4,468.6c-17.2-17.2-34.4-34.4-51.6-51.6c-27.4-27.4-54.8-54.8-82.2-82.2c-4.8-4.8-9.5-9.5-14.3-14.3
	c29.4-32.5,47.4-75.5,47.4-122.7C380.7,97,298.7,15,197.9,15S15,97,15,197.9s82,182.9,182.9,182.9c47.2,0,90.3-18,122.7-47.4
	c15.7,15.7,31.4,31.4,47.1,47.1c27.4,27.4,54.8,54.8,82.2,82.2c6.3,6.3,12.5,12.5,18.8,18.8C476.8,489.6,489.6,476.8,481.4,468.6z
	 M35,197.9C35,108.1,108.1,35,197.9,35s162.9,73.1,162.9,162.9s-73.1,162.9-162.9,162.9S35,287.7,35,197.9z"/>
</svg>
