<svg version="1.1" xmlns="http://www.w3.org/2000/svg" xmlns:xlink="http://www.w3.org/1999/xlink" x="0px" y="0px"
	 viewBox="0 0 500 500" style="enable-background:new 0 0 500 500;" xml:space="preserve">
<g>
	<path d="M248,260.5c-62,0-112.5-52.8-112.5-117.7S186,25,248,25s112.5,52.8,112.5,117.7S310,260.5,248,260.5z M248,45.9
		c-51,0-92.5,43.4-92.5,96.8s41.5,96.8,92.5,96.8c51,0,92.5-43.4,92.5-96.8S299,45.9,248,45.9z"/>
</g>
<path d="M45,475C45,475,45,475,45,475c0-118.3,92-214.5,205-214.5c113,0,205,96.2,205,214.5c0,0,0,0,0,0h20c0,0,0,0,0,0
	c0-62.9-23.4-122-65.9-166.5c-42.5-44.5-99-69-159.1-69s-116.6,24.5-159.1,69C48.4,353,25,412.1,25,475c0,0,0,0,0,0H45z"/>
</svg>
