<?xml version="1.0" encoding="utf-8"?>
<!-- Generator: Adobe Illustrator 24.3.0, SVG Export Plug-In . SVG Version: 6.00 Build 0)  -->
<svg version="1.1" xmlns="http://www.w3.org/2000/svg" xmlns:xlink="http://www.w3.org/1999/xlink" x="0px" y="0px"
	 viewBox="0 0 566.9 566.9" style="enable-background:new 0 0 566.9 566.9;" xml:space="preserve">
<style type="text/css">
	.st0{fill:#565555;}
</style>
<g id="Non_Print">
</g>
<g id="Layer_3">
</g>
<g id="Print">
	<path class="st0" d="M281.8,3C129,3,4.7,128.5,4.7,282.8S129,562.5,281.8,562.5S559,437,559,282.8S434.7,3,281.8,3z M413.7,276.2
		v11.5l-30.8,13.9c-2.4-1.7-5.3-2.7-8.4-2.7c-4,0-7.5,1.7-10.2,4.4l-29.3-8.3v-18.7c0-1.9,1.3-3.2,3.2-3.2H410
		C411.9,272.9,413.7,274.3,413.7,276.2z M374.5,328c7.7,0,13.9-6.1,14.4-13.7l24.8-11.2v44.3H335v-37.9l25.6,7.3
		C362.1,323.2,367.7,328,374.5,328z M365,313.4c0-5.3,4.2-9.6,9.5-9.6c5.2,0,9.5,4.3,9.5,9.6c0,5.3-4.2,9.6-9.5,9.6
		C369.2,323,365,318.7,365,313.4z M281.8,272.7c-7.4,0-13.5,5.7-14.3,12.9l-25.2,10.9v-40.5c0-1.9,1.4-3.2,3.4-3.2h71.8
		c1.9,0,3.6,1.3,3.6,3.2v35.2l-25.1-7.1C294.5,277.6,288.7,272.7,281.8,272.7z M291.2,287.3c0,5.3-4.2,9.6-9.5,9.6
		c-5.2,0-9.5-4.3-9.5-9.6c0-5.3,4.2-9.6,9.5-9.6C287,277.7,291.2,282,291.2,287.3z M242.3,311.9l30.5-13.2c2.5,2,5.6,3.2,9,3.2
		c3.9,0,7.5-1.6,10.1-4.1l29.2,8.2v41.5h-78.7V311.9z M149.6,291.3c0-1.9,1.6-3.2,3.5-3.2h71.8c1.9,0,3.5,1.3,3.5,3.2v11.4l-29,12.6
		c-2.6-2.6-6.2-4.3-10.2-4.3c-8,0-14.5,6.5-14.5,14.6c0,8,6.5,14.6,14.5,14.6c6.8,0,12.5-4.8,14-11.2l25.2-10.9v29.4h-78.7V291.3z
		 M198.5,325.5c0,5.3-4.2,9.6-9.5,9.6c-5.2,0-9.5-4.3-9.5-9.6c0-5.3,4.2-9.6,9.5-9.6C194.3,315.9,198.5,320.2,198.5,325.5z
		 M56,321.6c0-2.6,2.1-4.6,4.6-4.6h71.6c2.5,0,4.6,2.1,4.6,4.6v26.6H56V321.6z M449.1,480.1C449.1,480.1,449.1,480,449.1,480.1
		L449.1,480.1L449.1,480.1z M427.7,347.4v-50l30-13.6c2.4,1.9,5.3,3,8.6,3c8,0,14.4-6.5,14.4-14.6c0-8-6.5-14.6-14.5-14.6
		c-7.6,0-13.6,5.9-14.2,13.4l-24.3,11v-51.1c0-1.9,1.1-3.2,3.1-3.2h71.8c1.9,0,3.9,1.3,3.9,3.2v116.5H427.7z M456.7,272.2
		c0-5.3,4.2-9.6,9.5-9.6c5.2,0,9.5,4.3,9.5,9.6c0,5.3-4.2,9.6-9.5,9.6C460.9,281.7,456.7,277.5,456.7,272.2z"/>
</g>
</svg>
