<?xml version="1.0" encoding="utf-8"?>
<!-- Generator: Adobe Illustrator 24.3.0, SVG Export Plug-In . SVG Version: 6.00 Build 0)  -->
<svg version="1.1" id="Layer_1" xmlns="http://www.w3.org/2000/svg" xmlns:xlink="http://www.w3.org/1999/xlink" x="0px" y="0px"
	 viewBox="0 0 1000 511.9" style="enable-background:new 0 0 1000 511.9;" xml:space="preserve">
<style type="text/css">
	.st0{fill:#404040;}
	.st1{fill:#404040;stroke:#404040;stroke-width:2;stroke-miterlimit:10;}
</style>
<g id="XMLID_5_">
	<path id="XMLID_33_" class="st0" d="M13,419.3h172.6v-60.7c0-2.2-1.8-4-4-4H17c-2.2,0-4,1.8-4,4V419.3z"/>
	<path id="XMLID_34_" class="st0" d="M11.9,363.2c0-5.4,4.4-9.7,9.7-9.7h155.3c5.4,0,9.7,4.4,9.7,9.7v57.2H11.9V363.2z M184.4,363.2
		c0-4.2-3.4-7.5-7.5-7.5H21.6c-4.2,0-7.5,3.4-7.5,7.5v55h170.4V363.2z"/>
</g>
<circle id="XMLID_9_" class="st0" cx="899.4" cy="257.6" r="20.5"/>
<path id="XMLID_43_" class="st0" d="M816.1,169.1c0-4.2,2.5-7,6.6-7h155.3c4.2,0,8.5,2.8,8.5,7v249.7H816.1V311.6l64.9-29.1
	c5.2,4,11.5,6.4,18.6,6.4c17.2,0,31.2-14,31.2-31.3c0-17.2-14.1-31.3-31.3-31.3c-16.3,0-29.4,12.6-30.7,28.6l-52.6,23.7V169.1z"/>
<circle id="XMLID_37_" class="st0" cx="701" cy="346" r="20.5"/>
<circle id="XMLID_11_" class="st0" cx="500.4" cy="289.9" r="20.5"/>
<path id="XMLID_13_" class="st0" d="M701.1,377.3c16.6,0,30.1-13,31.1-29.4l53.7-23.9v94.9H615.5v-81.2l55.3,15.6
	C674.1,367,686.3,377.3,701.1,377.3z"/>
<path id="XMLID_15_" class="st0" d="M622.5,259.2h155.3c4.2,0,8.2,2.8,8.2,7v24.7l-66.7,29.7c-5.1-3.7-11.4-5.9-18.2-5.9
	c-8.7,0-16.3,3.6-22,9.4l-63.5-17.8v-40.1C615.5,262,618.3,259.2,622.5,259.2z"/>
<path id="XMLID_12_" class="st0" d="M214.3,298.5c0-4.2,3.4-7,7.6-7h155.3c4.2,0,7.5,2.8,7.5,7v24.3l-62.8,26.9
	c-5.7-5.7-13.5-9.2-22.1-9.2c-17.2,0-31.3,14-31.3,31.3c0,17.2,14,31.3,31.3,31.3c14.8,0,27.1-10.3,30.4-24.1l54.5-23.4v63.1H214.3
	V298.5z"/>
<circle id="XMLID_17_" class="st0" cx="299.8" cy="371.9" r="20.5"/>
<path id="XMLID_6_" class="st0" d="M500.4,321.2c8.5,0,16.1-3.4,21.8-8.9l63.1,17.6v88.9H414.9v-76.2l66-28.3
	C486.3,318.6,493,321.2,500.4,321.2z"/>
<path id="XMLID_14_" class="st0" d="M422.2,216.1h155.3c4.2,0,7.8,2.8,7.8,7v75.6L531,283.4c-3-14.1-15.6-24.8-30.6-24.8
	c-16,0-29.1,12.1-30.9,27.7l-54.6,23.4V223C414.9,218.9,418,216.1,422.2,216.1z"/>
<g>
	<path class="st1" d="M14.8,501.2v-53.7h15c4.4,0,8.3,1,11.8,3c3.5,2,6.2,4.9,8.2,8.6c2,3.7,2.9,8,2.9,12.8v4.9c0,4.8-1,9-2.9,12.8
		c-1.9,3.7-4.7,6.6-8.2,8.6c-3.5,2-7.6,3-12.1,3H14.8z M19.4,451.3v46h10.2c5.7,0,10.2-1.9,13.6-5.6c3.4-3.8,5.1-8.8,5.1-15.2v-4.7
		c0-6.2-1.7-11.1-5.1-14.8c-3.4-3.7-7.8-5.6-13.3-5.6H19.4z"/>
	<path class="st1" d="M205.6,475.4h-25.1v21.9h28.9v3.8H176v-53.7h33.2v3.8h-28.7v20.3h25.1V475.4z"/>
	<path class="st1" d="M361,488c0-3-1-5.3-3.1-7.1c-2.1-1.7-5.9-3.4-11.5-4.9c-5.6-1.6-9.6-3.3-12.2-5.1c-3.6-2.6-5.5-6-5.5-10.2
		c0-4.1,1.7-7.4,5.1-10c3.4-2.6,7.7-3.9,13-3.9c3.6,0,6.8,0.7,9.6,2.1c2.8,1.4,5,3.3,6.5,5.8c1.5,2.5,2.3,5.2,2.3,8.2h-4.6
		c0-3.7-1.3-6.6-3.8-8.9c-2.5-2.2-5.9-3.3-10.1-3.3c-4.1,0-7.4,0.9-9.8,2.8c-2.4,1.8-3.6,4.2-3.6,7.2c0,2.7,1.1,5,3.3,6.7
		c2.2,1.7,5.7,3.2,10.5,4.6c4.8,1.3,8.5,2.7,10.9,4.1c2.5,1.4,4.3,3.1,5.6,5.1c1.3,2,1.9,4.3,1.9,7c0,4.2-1.7,7.6-5.1,10.2
		c-3.4,2.6-7.8,3.8-13.4,3.8c-3.8,0-7.3-0.7-10.4-2s-5.6-3.2-7.2-5.7c-1.6-2.4-2.5-5.2-2.5-8.4h4.5c0,3.8,1.4,6.8,4.2,9
		c2.8,2.2,6.6,3.3,11.3,3.3c4.2,0,7.5-0.9,10.1-2.8C359.8,493.5,361,491,361,488z"/>
	<path class="st1" d="M492.6,501.2h-4.5v-53.7h4.5V501.2z"/>
	<path class="st1" d="M657.7,494.8c-1.6,2.2-4,4-7.4,5.2c-3.4,1.3-7.1,1.9-11.3,1.9c-4.2,0-7.9-1-11.2-3c-3.3-2-5.8-4.9-7.6-8.6
		c-1.8-3.7-2.7-7.9-2.7-12.7v-6.8c0-7.4,1.9-13.3,5.6-17.6c3.8-4.3,8.8-6.5,15.2-6.5c5.5,0,10,1.4,13.3,4.2c3.4,2.8,5.4,6.7,6,11.6
		h-4.5c-0.7-3.9-2.3-6.9-4.8-9c-2.5-2-5.9-3.1-10-3.1c-5,0-9,1.8-11.9,5.3c-2.9,3.6-4.4,8.6-4.4,15.1v6.3c0,4.1,0.7,7.7,2.1,10.8
		c1.4,3.1,3.4,5.6,6,7.3c2.6,1.7,5.6,2.6,8.9,2.6c3.9,0,7.3-0.6,10.1-1.8c1.8-0.8,3.2-1.8,4.1-2.8v-13.9h-14.4v-3.8h18.9V494.8z"/>
	<path class="st1" d="M822.2,501.2h-4.5l-30.9-45.9v45.9h-4.6v-53.7h4.6l30.9,46v-46h4.5V501.2z"/>
	<path class="st1" d="M978,488c0-3-1-5.3-3.1-7.1c-2.1-1.7-5.9-3.4-11.5-4.9c-5.6-1.6-9.6-3.3-12.2-5.1c-3.6-2.6-5.5-6-5.5-10.2
		c0-4.1,1.7-7.4,5.1-10c3.4-2.6,7.7-3.9,13-3.9c3.6,0,6.8,0.7,9.6,2.1c2.8,1.4,5,3.3,6.5,5.8c1.5,2.5,2.3,5.2,2.3,8.2h-4.6
		c0-3.7-1.3-6.6-3.8-8.9c-2.5-2.2-5.9-3.3-10.1-3.3c-4.1,0-7.4,0.9-9.8,2.8c-2.4,1.8-3.7,4.2-3.7,7.2c0,2.7,1.1,5,3.3,6.7
		c2.2,1.7,5.7,3.2,10.5,4.6c4.8,1.3,8.5,2.7,10.9,4.1c2.5,1.4,4.3,3.1,5.6,5.1c1.3,2,1.9,4.3,1.9,7c0,4.2-1.7,7.6-5.1,10.2
		c-3.4,2.6-7.8,3.8-13.4,3.8c-3.8,0-7.3-0.7-10.4-2c-3.2-1.4-5.6-3.2-7.2-5.7c-1.6-2.4-2.5-5.2-2.5-8.4h4.5c0,3.8,1.4,6.8,4.2,9
		c2.8,2.2,6.6,3.3,11.3,3.3c4.2,0,7.5-0.9,10.1-2.8C976.7,493.5,978,491,978,488z"/>
</g>
<path class="st0" d="M120.5,331.8h-12.3l-9-65.1l-8.8,65.1H78.3l-16-128.3h10.1c3.1,0,3.9,1.8,4,2.8l8.8,70.2l6.4-44.4
	c0.7-7.5,2.9-10.3,11.4-10.3h1.7l8.6,54.6l8.4-70.4c0.2-0.9,1.1-2.6,3.9-2.6h10.5L120.5,331.8z"/>
<path class="st0" d="M325.5,258.6c-1.5,3.3-3.7,8.4-4.2,9.5c-0.9,1.7-2.9,3.5-7.2,3.5h-29.3V146.9c0.2-2,1.8-3.7,4-3.7h34.3
	l-4.4,9.5c-0.7,1.7-2.8,3.7-7,3.7h-10.6c-1.8,0-3.1,1.3-3.1,3.1v38.1h19.8c-1.5,3.3-3.7,8.6-4.2,9.7c-0.9,1.6-2.7,3.5-7,3.5h-5.5
	c-1.7,0-3.1,1.5-3.1,3.1v44.6H325.5z"/>
<path class="st0" d="M520,141.4V179c-0.2,9-7.3,16.1-16.3,16.1h-23.8V66.8h23.8c9,0,16.1,7.2,16.3,16.1v37.6c0,0,0.2,8.1-7.5,10.5
	C520.2,133.3,520,141.4,520,141.4z M506.8,86.6c0-4.8-3.3-6.6-6.8-6.6h-7.2v44.9h7.2c3.5,0,6.8-1.6,6.8-7.5V86.6z M506.8,144.3
	c0-5.7-3.3-7.3-6.8-7.3h-7.2v45.1h7.2c3.5,0,6.8-1.8,6.8-6.8V144.3z"/>
<path class="st0" d="M708.8,141v-14.9c0-4-3.1-7.2-7-7.2c-3.9,0-7,3.1-7,7.2v12.3c0,7.5,5.7,17.2,5.7,17.2l15.8,29.7
	c6.4,11.7,5.9,20.4,5.9,20.4V222c0,9-7.3,16.3-16.5,16.3h-8.3c-8.8-0.4-15.8-7.5-16-16.3v-13.2c0-4.2,2-6.2,3.7-7.2
	c1.1-0.4,6.4-2.8,9.7-4.2v22.4c0,3.9,3.1,7,7,7c3.9,0,7-3.1,7-7.1V205c0-7.5-5.7-17.4-5.7-17.4L687.4,158
	c-6.4-11.7-5.9-20.4-5.9-20.4v-13.2c0-9,7.3-17.1,16.5-17.1h8.3c8.8,0.2,16,8.3,16,17.1v5c0,4.2-2,6.2-3.7,7.2
	C717.4,137.1,712.3,139.5,708.8,141z"/>
<path class="st0" d="M906.1,86.4v53.4h-9.4c-2,0-3.7-1.7-3.9-3.9V86.4l-15.8-75h9.7c0.4,0,3.7,0.2,4.2,4.4l8.4,48.6l8.4-48.6
	c0.5-4.2,3.9-4.4,4.2-4.4h9.7L906.1,86.4z"/>
</svg>
