<svg version="1.1" xmlns="http://www.w3.org/2000/svg" xmlns:xlink="http://www.w3.org/1999/xlink" x="0px" y="0px"
	 viewBox="0 0 500 500" style="enable-background:new 0 0 500 500;" xml:space="preserve">
<path d="M456.6,472.3H43.4c-5.3,0-10.2-2.1-13.7-6c-3.6-3.9-5.2-9.2-4.5-14.4l37-285.4c1.2-9,9-15.9,18.2-15.9h339.2
	c9.2,0,17,6.8,18.2,15.8l37,285.4c0.7,5.2-1,10.5-4.5,14.4l0,0C466.8,470.1,461.9,472.3,456.6,472.3z M46.5,451.2h407l-36.3-279.6
	H82.8L46.5,451.2z"/>
<g>
	<path d="M361.3,157.1C357.3,94.8,308.4,46,249.9,46c-28,0-54.8,11.1-75.4,31.4c-20.7,20.3-33.5,47.9-35.9,77.8l-21.5-1.6
		c2.8-34.8,17.7-67.1,42.1-91C183.9,38.3,216.1,25,249.9,25c34.2,0,66.6,13.6,91.5,38.3c24.5,24.3,39.2,57.2,41.5,92.5L361.3,157.1z
		"/>
</g>
</svg>
